<?xml version="1.0" encoding="UTF-8" standalone="no"?>
<svg
   xmlns:dc="http://purl.org/dc/elements/1.1/"
   xmlns:cc="http://creativecommons.org/ns#"
   xmlns:rdf="http://www.w3.org/1999/02/22-rdf-syntax-ns#"
   xmlns:svg="http://www.w3.org/2000/svg"
   xmlns="http://www.w3.org/2000/svg"
   xmlns:sodipodi="http://sodipodi.sourceforge.net/DTD/sodipodi-0.dtd"
   xmlns:inkscape="http://www.inkscape.org/namespaces/inkscape"
   version="1.1"
   width="350"
   height="350"
   viewBox="0 0 350 350"
   xml:space="preserve"
   id="svg1053"
   sodipodi:docname="mail-142.svg"
   inkscape:version="1.0.2 (1.0.2+r75+1)"><metadata
   id="metadata1057"><rdf:RDF><cc:Work
       rdf:about=""><dc:format>image/svg+xml</dc:format><dc:type
         rdf:resource="http://purl.org/dc/dcmitype/StillImage" /></cc:Work></rdf:RDF></metadata><sodipodi:namedview
   pagecolor="#ffffff"
   bordercolor="#666666"
   borderopacity="1"
   objecttolerance="10"
   gridtolerance="10"
   guidetolerance="10"
   inkscape:pageopacity="0"
   inkscape:pageshadow="2"
   inkscape:window-width="1680"
   inkscape:window-height="932"
   id="namedview1055"
   showgrid="false"
   inkscape:zoom="2.2228571"
   inkscape:cx="175"
   inkscape:cy="175"
   inkscape:window-x="0"
   inkscape:window-y="27"
   inkscape:window-maximized="1"
   inkscape:current-layer="svg1053" />
<desc
   id="desc1038">Created with Fabric.js 1.7.22</desc>
<defs
   id="defs1040">
</defs>
<g
   id="icon"
   style="opacity:1;fill:none;fill-rule:nonzero;stroke:none;stroke-width:1;stroke-linecap:butt;stroke-linejoin:miter;stroke-miterlimit:10;stroke-dasharray:none"
   transform="matrix(0.27361355,0,0,0.27361355,140.06678,48.615947)"
   inkscape:export-xdpi="96"
   inkscape:export-ydpi="96">
	<path
   d="M 75.546,78.738 H 14.455 C 6.484,78.738 0,72.254 0,64.283 V 25.716 C 0,17.746 6.485,11.261 14.455,11.261 h 61.091 c 7.97,0 14.454,6.485 14.454,14.455 v 38.567 c 0,7.971 -6.484,14.455 -14.454,14.455 z M 14.455,15.488 c -5.64,0 -10.228,4.588 -10.228,10.228 v 38.567 c 0,5.64 4.588,10.229 10.228,10.229 h 61.091 c 5.64,0 10.228,-4.589 10.228,-10.229 V 25.716 c 0,-5.64 -4.588,-10.228 -10.228,-10.228 H 14.455 Z"
   style="opacity:1;fill:#1d1d1b;fill-rule:nonzero;stroke:none;stroke-width:1;stroke-linecap:butt;stroke-linejoin:miter;stroke-miterlimit:10;stroke-dasharray:none"
   stroke-linecap="round"
   id="path1042" />
	<path
   d="M 11.044,25.917 C 21.848,36.445 32.652,46.972 43.456,57.5 45.47,59.462 48.561,56.378 46.544,54.412 35.74,43.885 24.936,33.357 14.132,22.83 12.118,20.867 9.027,23.952 11.044,25.917 Z"
   style="opacity:1;fill:#1d1d1b;fill-rule:nonzero;stroke:none;stroke-width:1;stroke-linecap:butt;stroke-linejoin:miter;stroke-miterlimit:10;stroke-dasharray:none"
   stroke-linecap="round"
   id="path1044" />
	<path
   d="M 46.544,57.5 C 57.348,46.973 68.152,36.445 78.956,25.918 80.972,23.953 77.883,20.867 75.868,22.83 65.064,33.357 54.26,43.885 43.456,54.412 c -2.016,1.965 1.073,5.051 3.088,3.088 z"
   style="opacity:1;fill:#1d1d1b;fill-rule:nonzero;stroke:none;stroke-width:1;stroke-linecap:butt;stroke-linejoin:miter;stroke-miterlimit:10;stroke-dasharray:none"
   stroke-linecap="round"
   id="path1046" />
	<path
   d="M 78.837,64.952 C 71.648,58.134 64.458,51.317 57.269,44.499 c -2.039,-1.933 -5.132,1.149 -3.088,3.088 7.189,6.818 14.379,13.635 21.568,20.453 2.039,1.933 5.132,-1.15 3.088,-3.088 z"
   style="opacity:1;fill:#1d1d1b;fill-rule:nonzero;stroke:none;stroke-width:1;stroke-linecap:butt;stroke-linejoin:miter;stroke-miterlimit:10;stroke-dasharray:none"
   stroke-linecap="round"
   id="path1048" />
	<path
   d="m 14.446,68.039 c 7.189,-6.818 14.379,-13.635 21.568,-20.453 2.043,-1.938 -1.048,-5.022 -3.088,-3.088 -7.189,6.818 -14.379,13.635 -21.568,20.453 -2.043,1.938 1.048,5.023 3.088,3.088 z"
   style="opacity:1;fill:#1d1d1b;fill-rule:nonzero;stroke:none;stroke-width:1;stroke-linecap:butt;stroke-linejoin:miter;stroke-miterlimit:10;stroke-dasharray:none"
   stroke-linecap="round"
   id="path1050" />
</g>
</svg>
